<svg stroke-miterlimit="10" viewBox="0 0 174.098 181.309" xml:space="preserve" xmlns="http://www.w3.org/2000/svg" xmlns:vectornator="http://vectornator.io" clip-rule="evenodd" stroke-linecap="round" stroke-linejoin="round"><g vectornator:layerName="Untitled" fill-rule="evenodd"><path d="M7.333 138.553C-6.08 116.232 16.83 24.349 39.15 10.938c22.32-13.412 114.203 9.497 127.615 31.818 13.411 22.32-9.498 114.203-31.818 127.615-22.321 13.412-114.204-9.497-127.615-31.818" fill="#0284c7"/><path d="M9.346 102.94c-3.44-21.757 43.661-86.549 65.418-89.989 21.757-3.44 86.548 43.661 89.988 65.418 3.44 21.757-43.661 86.548-65.418 89.988-21.757 3.44-86.548-43.661-89.988-65.417" fill="#0ea5e9"/><path d="M30.25 60.356c8.484-15.903 71.194-34.984 87.097-26.5 15.904 8.483 34.984 71.193 26.501 87.096-8.484 15.904-71.193 34.984-87.097 26.501-15.904-8.484-34.984-71.193-26.5-87.097" fill="#38bdf8"/></g></svg>