<?xml version="1.0" standalone="no"?>
<!DOCTYPE svg PUBLIC "-//W3C//DTD SVG 20010904//EN"
 "http://www.w3.org/TR/2001/REC-SVG-20010904/DTD/svg10.dtd">
<svg version="1.0" xmlns="http://www.w3.org/2000/svg"
 width="724.000000pt" height="724.000000pt" viewBox="0 0 724.000000 724.000000"
 preserveAspectRatio="xMidYMid meet">
<metadata>
Created by potrace 1.14, written by Peter Selinger 2001-2017
</metadata>
<g transform="translate(0.000000,724.000000) scale(0.100000,-0.100000)"
fill="#000000" stroke="none">
<path d="M2425 6962 c-1 -2 -38 -5 -81 -7 -44 -3 -99 -7 -124 -10 -89 -11
-125 -16 -140 -20 -8 -2 -31 -7 -50 -10 -42 -7 -177 -44 -199 -55 -9 -4 -34
-15 -56 -26 -116 -54 -226 -151 -357 -316 -21 -26 -38 -52 -38 -58 0 -5 -4
-10 -8 -10 -5 0 -15 -12 -23 -27 -8 -16 -17 -30 -20 -33 -12 -10 -77 -118 -83
-138 -4 -12 -11 -22 -15 -22 -4 0 -13 -16 -21 -35 -8 -19 -17 -35 -22 -35 -4
0 -8 -9 -8 -19 0 -11 -4 -22 -8 -25 -15 -9 -182 -358 -182 -379 0 -7 -4 -17
-8 -22 -19 -21 -223 -558 -236 -620 -3 -13 -75 -242 -86 -275 -11 -32 -71
-248 -76 -275 -2 -11 -13 -54 -25 -95 -11 -41 -22 -83 -24 -93 -2 -10 -6 -26
-9 -35 -3 -9 -7 -28 -10 -42 -2 -14 -9 -43 -14 -65 -6 -22 -13 -51 -16 -65 -2
-14 -9 -45 -15 -70 -5 -25 -12 -58 -15 -75 -3 -16 -8 -41 -11 -55 -3 -14 -8
-36 -11 -50 -2 -14 -7 -36 -10 -50 -3 -14 -8 -38 -10 -55 -3 -16 -9 -50 -14
-75 -5 -25 -11 -61 -14 -80 -4 -19 -8 -44 -10 -55 -2 -11 -7 -47 -12 -80 -4
-33 -8 -62 -9 -65 0 -3 -5 -32 -9 -65 -4 -33 -10 -76 -13 -95 -3 -19 -7 -48
-8 -65 -22 -215 -22 -216 -31 -365 -13 -212 -8 -567 10 -670 3 -14 7 -45 11
-70 10 -68 12 -76 30 -155 11 -46 55 -168 65 -181 6 -6 8 -13 5 -16 -3 -3 1
-11 10 -18 8 -7 15 -17 15 -23 0 -6 19 -35 42 -66 183 -243 589 -495 1178
-730 233 -94 252 -101 262 -101 6 0 24 -7 41 -15 50 -22 557 -183 635 -200 9
-2 59 -15 109 -29 51 -14 103 -28 115 -30 13 -3 33 -7 46 -10 12 -4 30 -8 40
-10 9 -3 55 -14 102 -26 47 -11 94 -22 105 -24 11 -2 74 -15 140 -29 66 -14
136 -28 155 -31 44 -7 77 -14 98 -20 9 -3 39 -7 65 -10 27 -3 52 -8 55 -10 4
-2 32 -7 62 -11 30 -4 64 -8 75 -10 11 -1 43 -6 70 -10 28 -4 59 -9 70 -10 11
-2 45 -6 75 -10 30 -3 66 -8 80 -10 25 -4 89 -10 225 -21 424 -34 841 -10
1065 62 69 23 190 76 190 84 0 4 11 12 25 18 41 19 173 143 225 211 14 19 37
48 53 66 15 18 27 38 27 44 0 6 4 11 8 11 5 0 19 19 33 41 13 23 31 52 39 64
76 114 310 571 310 604 0 5 6 21 14 37 43 90 117 281 165 424 18 52 36 104 41
115 10 24 41 121 44 138 1 7 5 18 9 24 5 7 10 23 13 35 3 13 6 28 8 33 4 16
47 157 57 185 7 23 29 101 35 125 1 6 10 39 19 75 10 36 19 72 19 80 1 9 5 20
8 25 3 6 12 37 19 70 7 33 14 65 15 70 8 29 54 224 58 250 3 17 8 41 12 55 8
33 13 60 17 90 2 14 7 34 10 45 3 11 8 36 11 55 3 19 10 60 16 90 6 30 13 78
16 105 4 28 8 53 11 57 4 7 10 50 17 123 2 17 6 41 9 55 7 31 21 140 32 260 3
36 8 83 10 105 17 149 24 606 11 725 -3 30 -8 80 -11 110 -4 30 -13 87 -20
125 -8 39 -16 79 -18 90 -2 11 -6 27 -9 35 -3 8 -11 33 -18 55 -20 67 -87 198
-122 239 -137 164 -373 340 -633 471 -22 11 -41 23 -43 28 -2 4 -9 7 -17 7 -7
0 -32 11 -56 24 -89 50 -580 258 -639 271 -8 2 -44 15 -79 29 -36 14 -72 26
-81 26 -9 0 -20 3 -24 8 -4 4 -12 8 -17 8 -5 1 -11 3 -14 4 -3 1 -8 3 -12 5
-5 1 -15 4 -23 8 -8 3 -40 13 -70 22 -30 9 -62 19 -70 21 -8 3 -16 5 -17 5 -2
0 -18 6 -38 15 -19 8 -36 14 -37 13 -2 -1 -36 9 -77 21 -41 12 -81 23 -90 25
-9 2 -56 16 -106 30 -49 14 -99 27 -110 29 -11 2 -27 7 -35 10 -8 3 -26 8 -40
10 -14 3 -40 9 -57 15 -18 5 -33 7 -33 4 0 -3 -7 0 -15 7 -8 7 -15 10 -15 7 0
-3 -21 0 -47 8 -40 11 -113 26 -133 27 -3 0 -14 4 -26 8 -11 5 -36 11 -55 14
-19 3 -68 12 -109 21 -41 9 -93 18 -114 21 -22 3 -43 7 -47 9 -4 3 -24 7 -45
10 -22 3 -50 8 -64 11 -34 6 -67 12 -115 18 -22 4 -51 8 -65 11 -14 3 -43 7
-65 10 -63 7 -127 16 -165 22 -19 2 -55 7 -80 9 -25 2 -67 6 -95 9 -197 19
-649 37 -660 27z"/>
</g>
</svg>
